# xmcd
#
# Track frame offsets:
#	150
#	10227
#	20974
#	29067
#	43090
#	55867
#	66513
#	78905
#	90063
#	102753
#	116717
#	129664
#	142008
#	155491
#	166067
#	175996
#	190851
#	202616
#	214585
#	226902
#
# Disc length: 3216 seconds
#
# Revision: 0
# Processed by: cddbd v1.5.2PL0 Copyright (c) Steve Scherf et al.
# Submitted via: EasyCDDAExtractor 11.1.0.1
#
DISCID=0c0c8e14
DTITLE=Various Artist - Healing hands of time
DYEAR=2008
DGENRE=country
TTITLE0=Willie Nelson - Healing hands of time
TTITLE1=Elvis Presley - How's the world treating you
TTITLE2=Johnny Cash - The wreck of the old '97
TTITLE3=Lefty Frizzell - Always late with your kisses
TTITLE4=Jimmy Davis - You are my sunshine
TTITLE5=Patsy Cline - Honky tonk merry go round
TTITLE6=Hank Williams - Move it on over
TTITLE7=Jim Reeves - Hilbilly waltz
TTITLE8=Ernest Tubb and The Andrew Sisters - I'm biting my fingernails and think
TTITLE8=ing of you
TTITLE9=Bing Crosby with The Les Paul trio - Gotta get somebody to love
TTITLE10=George Morgan - Candy kisses
TTITLE11=Bob Wills and his Texas playboys - You're from Texas
TTITLE12=Eddy Arnold and his Tennessee Plowboys - What a fool I was
TTITLE13=Jo Stafford and Frankie Laine - Hey good lookin'
TTITLE14=Willie Nelson - Broken promises
TTITLE15=Slim Whitman - Indian love call
TTITLE16=Roy Acuff - Waltz of the wind
TTITLE17=Kitty Wells - It wasn't God who made honky tonk angels
TTITLE18=Johnny Cash - I walk the line
TTITLE19=Elvis Presley - (There'll be peace) In the valley
EXTD=
EXTT0=
EXTT1=
EXTT2=
EXTT3=
EXTT4=
EXTT5=
EXTT6=
EXTT7=
EXTT8=
EXTT9=
EXTT10=
EXTT11=
EXTT12=
EXTT13=
EXTT14=
EXTT15=
EXTT16=
EXTT17=
EXTT18=
EXTT19=
PLAYORDER=
